/* XPM */
static char *result[] = {
/* columns rows colors chars-per-pixel */
"32 32 60 1 ",
"  c black",
". c #010101",
"X c gray2",
"o c #060606",
"O c #090909",
"+ c gray4",
"@ c #111111",
"# c gray7",
"$ c #1D1D1D",
"% c #1E1E1E",
"& c gray12",
"* c gray14",
"= c #252525",
"- c #272727",
"; c #2D2D2D",
": c gray18",
"> c #313131",
", c #3C3C3C",
"< c #3E3E3E",
"1 c gray29",
"2 c gray31",
"3 c gray32",
"4 c #585858",
"5 c gray35",
"6 c #5B5B5B",
"7 c #5D5D5D",
"8 c #5F5F5F",
"9 c gray38",
"0 c #626262",
"q c #6D6D6D",
"w c #6F6F6F",
"e c #717171",
"r c gray53",
"t c gray54",
"y c #8D8D8D",
"u c gray57",
"i c gray62",
"p c #9F9F9F",
"a c #A0A0A0",
"s c gray63",
"d c #A4A4A4",
"f c #A7A7A7",
"g c #A9A9A9",
"h c gray67",
"j c #B9B9B9",
"k c gray74",
"l c gray",
"z c #D0D0D0",
"x c gray83",
"c c gray86",
"v c gainsboro",
"b c #DDDDDD",
"n c gray88",
"m c #E9E9E9",
"M c #EAEAEA",
"N c gray92",
"B c gray99",
"V c #FDFDFD",
"C c white",
"Z c None",
/* pixels */
"ZZZZZZZZCCCCCCCCCCCCCCCCZZZZZZZZ",
"ZZZZZZZZVVVVVVVVVVVVVVVVZZZZZZZZ",
"ZZZZZZZZnbvvvccccccvvvbnZZZZZZZZ",
"ZZZZZZZzjhdsapiiiipasdhjzZZZZZZZ",
"ZZZZZCMkue965554455569eukMCZZZZZ",
"ZZZZCBvgw<=$&*====*&$=<wgvBCZZZZ",
"ZZZZMvly3&oo#&=--=&#oo&3ylvMZZZZ",
"ZZZzkgy0>+ @:158851:@ +>0ygkzZZZ",
"CVnjuw3>#.O;7riggir7;O.#>3wujnVC",
"CVbhe<&+.X%2tkcmmckt2%X.+&<ehbVC",
"CVvd9=o O%,qfvVCCVvfq,%O o=9dvVC",
"CVvs6$o@;2qukNCCCCNkuq2;@o$6svVC",
"CVva5&#:7tfkxZZZZZZxkft7:#&5avVC",
"CVcp5*&1rkvNZZZZZZZZNvkr1&*5pcVC",
"CVci5==5icVCZZZZZZZZCVci5==5icVC",
"CVci4=-8gmCCZZZZZZZZCCmg8-=4icVC",
"CVci4=-8gmCCZZZZZZZZCCmg8-=4icVC",
"CVci5==5icVCZZZZZZZZCVci5==5icVC",
"CVcp5*&1rkvNZZZZZZZZNvkr1&*5pcVC",
"CVva5&#:7tfkxZZZZZZxkft7:#&5avVC",
"CVvs6$o@;2qukNCCCCNkuq2;@o$6svVC",
"CVvd9=o O%,qfvVCCVvfq,%O o=9dvVC",
"CVbhe<&+.X%2tkcmmckt2%X.+&<ehbVC",
"CVnjuw3>#.O;7riggir7;O.#>3wujnVC",
"ZZZzkgy0>+ @:158851:@ +>0ygkzZZZ",
"ZZZZMvly3&oo#&=--=&#oo&3ylvMZZZZ",
"ZZZZCBvgw<=$&*====*&$=<wgvBCZZZZ",
"ZZZZZCMkue965554455569eukMCZZZZZ",
"ZZZZZZZzjhdsapiiiipasdhjzZZZZZZZ",
"ZZZZZZZZnbvvvccccccvvvbnZZZZZZZZ",
"ZZZZZZZZVVVVVVVVVVVVVVVVZZZZZZZZ",
"ZZZZZZZZCCCCCCCCCCCCCCCCZZZZZZZZ"
};
