/* XPM */
static char *result[] = {
/* columns rows colors chars-per-pixel */
"32 32 169 2 ",
"   c black",
".  c #010101",
"X  c gray1",
"o  c #040404",
"O  c gray2",
"+  c #060606",
"@  c #070707",
"#  c gray3",
"$  c #090909",
"%  c gray4",
"&  c #0B0B0B",
"*  c #0C0C0C",
"=  c gray5",
"-  c #0E0E0E",
";  c gray6",
":  c #101010",
">  c #111111",
",  c gray7",
"<  c #131313",
"1  c gray8",
"2  c #151515",
"3  c #161616",
"4  c gray9",
"5  c #181818",
"6  c #191919",
"7  c #1B1B1B",
"8  c gray11",
"9  c #1D1D1D",
"0  c gray12",
"q  c #202020",
"w  c gray13",
"e  c #222222",
"r  c #232323",
"t  c gray14",
"y  c #252525",
"u  c gray15",
"i  c #282828",
"p  c gray16",
"a  c #2C2C2C",
"s  c #2D2D2D",
"d  c gray19",
"f  c #313131",
"g  c #323232",
"h  c #343434",
"j  c #373737",
"k  c gray22",
"l  c #393939",
"z  c #3A3A3A",
"x  c gray23",
"c  c #3C3C3C",
"v  c gray24",
"b  c #3E3E3E",
"n  c #3F3F3F",
"m  c gray25",
"M  c #414141",
"N  c gray26",
"B  c #434343",
"V  c gray27",
"C  c gray28",
"Z  c #484848",
"A  c #494949",
"S  c #4B4B4B",
"D  c #4E4E4E",
"F  c #505050",
"G  c #515151",
"H  c #535353",
"J  c gray33",
"K  c gray34",
"L  c #5A5A5A",
"P  c #5B5B5B",
"I  c gray36",
"U  c gray38",
"Y  c #626262",
"T  c gray39",
"R  c #646464",
"E  c DimGray",
"W  c #6C6C6C",
"Q  c #6D6D6D",
"!  c #6F6F6F",
"~  c gray44",
"^  c #717171",
"/  c #727272",
"(  c gray45",
")  c gray46",
"_  c #767676",
"`  c gray48",
"'  c #7B7B7B",
"]  c #7E7E7E",
"[  c gray50",
"{  c #818181",
"}  c gray51",
"|  c #838383",
" . c gray52",
".. c #868686",
"X. c gray53",
"o. c #888888",
"O. c #898989",
"+. c gray54",
"@. c #8B8B8B",
"#. c gray55",
"$. c #8D8D8D",
"%. c #909090",
"&. c #989898",
"*. c gray60",
"=. c #9A9A9A",
"-. c #9D9D9D",
";. c gray62",
":. c #9F9F9F",
">. c #A0A0A0",
",. c gray63",
"<. c #A2A2A2",
"1. c gray64",
"2. c gray65",
"3. c #A7A7A7",
"4. c gray66",
"5. c #AAAAAA",
"6. c gray68",
"7. c #AEAEAE",
"8. c #AFAFAF",
"9. c #B2B2B2",
"0. c gray70",
"q. c #B7B7B7",
"w. c gray72",
"e. c gray",
"r. c gray75",
"t. c #C0C0C0",
"y. c #C1C1C1",
"u. c gray77",
"i. c #C6C6C6",
"p. c gray78",
"a. c #C8C8C8",
"s. c gray79",
"d. c #CBCBCB",
"f. c gray80",
"g. c #CDCDCD",
"h. c gray81",
"j. c #D0D0D0",
"k. c gray82",
"l. c #D2D2D2",
"z. c LightGray",
"x. c gray83",
"c. c #D7D7D7",
"v. c #D8D8D8",
"b. c gray85",
"n. c gray87",
"m. c #DFDFDF",
"M. c #E2E2E2",
"N. c gray89",
"B. c #E4E4E4",
"V. c gray90",
"C. c gray91",
"Z. c #E9E9E9",
"A. c #EAEAEA",
"S. c gray92",
"D. c #ECECEC",
"F. c #EEEEEE",
"G. c gray94",
"H. c #F1F1F1",
"J. c gray95",
"K. c #F4F4F4",
"L. c gray97",
"P. c #F8F8F8",
"I. c #F9F9F9",
"U. c #FBFBFB",
"Y. c gray99",
"T. c #FDFDFD",
"R. c #FEFEFE",
"E. c white",
"W. c None",
/* pixels */
"W.W.W.W.W.W.W.W.W.W.W.W.W.W.W.W.W.W.W.W.W.W.W.W.W.W.W.W.W.W.W.W.",
"W.W.W.W.W.W.W.W.W.W.W.W.W.W.W.W.W.W.W.W.W.W.W.W.W.W.W.W.W.W.W.W.",
"W.W.W.W.W.W.W.W.W.W.W.W.W.W.W.W.W.W.W.W.W.W.W.W.W.W.W.W.W.W.W.W.",
"W.W.W.W.W.W.W.W.E.E.E.E.E.E.E.E.E.E.E.E.E.W.W.W.W.W.W.W.W.W.W.W.",
"W.W.W.W.W.W.W.c.l.j.j.j.j.h.h.j.v.V.K.R.E.E.W.W.W.W.W.W.W.W.W.W.",
"W.W.W.W.W.I.s.-.] / ~ ^ ( ~ Q ( O.9.n.R.E.E.E.W.W.W.W.W.W.W.W.W.",
"W.W.W.W.R.N.7.W f 3 : 1 5 < ; 5 l ) w.A.E.E.E.E.E.W.W.W.W.W.W.W.",
"W.W.W.k.r.2.` B :               < B ` 5.f.B.K.R.E.E.W.W.W.W.W.W.",
"E.I.l.>.^ D g 6 O               + 5 d F ] 0.M.T.E.E.E.E.W.W.W.W.",
"E.I.g.+.M ;       o & , 2 > % X       , C %.x.Y.E.E.E.E.W.W.W.W.",
"E.I.g...j         = f H U F s %       X z o.l.Y.E.E.E.E.W.W.W.W.",
"E.I.g.o.x +       r T :.w.=.P 9       % m @.z.Y.E.E.E.E.W.W.W.W.",
"E.I.g...x = X : s K &.z.S.g.%.G p - X ; m @.z.Y.E.E.E.E.W.W.W.W.",
"E.I.d.| l 2 u J X.8.x.G.U.F.j.5.} D e 3 v X.l.Y.E.E.E.E.W.W.W.W.",
"E.I.d.{ k 7 b | u.C.P.Y.Y.Y.L.V.e.' k 7 c  .k.Y.E.E.E.E.W.W.W.W.",
"E.I.d.} l 5 f E 1.a.M.J.L.H.m.u.-.Y a 5 v ..l.Y.E.E.E.E.W.W.W.W.",
"E.I.f. .x ; - u A / 4.b.D.x.<.Q V e = > n +.l.Y.E.E.E.E.W.W.W.W.",
"E.I.g.o.c $     # h [ i.B.t._ s O     = M #.z.Y.E.E.E.E.W.W.W.W.",
"E.I.g.o.v #       i ` a.Z.y.~ q       * N $.z.Y.E.E.E.E.W.W.W.W.",
"E.I.g.o.c #       a ' i.V.r./ y       * M $.z.Y.E.E.E.E.W.W.W.W.",
"E.I.g.o.c $     . y T ;.q.*.I 0       * M #.z.Y.E.E.E.E.W.W.W.W.",
"E.I.g.o.c $       , f D L S s ;       * M #.z.Y.E.E.E.E.W.W.W.W.",
"E.I.g.o.c $       O ; 4 7 3 = O       * M #.z.Y.E.E.E.E.W.W.W.W.",
"E.I.g.o.c $       = t l N j w &       * M #.z.Y.E.E.E.E.W.W.W.W.",
"E.I.g.o.c $     . q K @.,...G 8       * M #.z.Y.E.E.E.E.W.W.W.W.",
"E.I.g.o.c #     . i W 6.p.3.R e       * M #.z.Y.E.E.E.E.W.W.W.W.",
"E.I.g.o.c $     . 7 Z (  .! B 4       * M #.z.Y.E.E.E.E.W.W.W.W.",
"E.I.g.o.c $       $ 5 u a t 3 @       * M #.z.Y.E.E.E.E.W.W.W.W.",
"E.I.g.o.c $                           * M #.z.Y.E.E.E.E.W.W.W.W.",
"W.W.W.W.W.W.W.W.W.W.W.W.W.W.W.W.W.W.W.W.W.W.W.W.W.W.W.W.W.W.W.W.",
"W.W.W.W.W.W.W.W.W.W.W.W.W.W.W.W.W.W.W.W.W.W.W.W.W.W.W.W.W.W.W.W.",
"W.W.W.W.W.W.W.W.W.W.W.W.W.W.W.W.W.W.W.W.W.W.W.W.W.W.W.W.W.W.W.W."
};
