/* XPM */
static char *result[] = {
/* columns rows colors chars-per-pixel */
"32 32 87 1 ",
"  c #010610",
". c #020815",
"X c #030E26",
"o c #040F29",
"O c #040F2A",
"+ c #04102A",
"@ c #051333",
"# c #05163A",
"$ c #05163C",
"% c #061A46",
"& c #071B48",
"* c #082159",
"= c #08215B",
"- c #08225B",
"; c #08225C",
": c #08225D",
"> c #08235D",
", c #092461",
"< c #0A276A",
"1 c #0A276B",
"2 c #0A2B74",
"3 c #0B2F7E",
"4 c #0B2F7F",
"5 c #0C3082",
"6 c #0C3183",
"7 c #0C3286",
"8 c #0C3389",
"9 c #0D338B",
"0 c #0D358E",
"q c #0E3795",
"w c #0E3796",
"e c #0F3CA1",
"r c #0F3DA5",
"t c #0F3EA6",
"y c #0F3EA7",
"u c #1040AD",
"i c #1041AF",
"p c #1042B3",
"a c #1043B5",
"s c #1144B8",
"d c #1145BB",
"f c #1146BC",
"g c #1146BE",
"h c #1148C1",
"j c #1248C2",
"k c #1248C3",
"l c #134CCD",
"z c #134CCE",
"x c #134ED2",
"c c #134ED3",
"v c #134FD4",
"b c #134FD6",
"n c #1452DE",
"m c #1453DF",
"M c #1453E0",
"N c #1454E2",
"B c #1554E3",
"V c #1554E4",
"C c #1555E4",
"Z c #1555E5",
"A c #1556E7",
"S c #1556E8",
"D c #1556E9",
"F c #1557EA",
"G c #1557EB",
"H c #1558ED",
"J c #1659F0",
"K c #1659F2",
"L c #165AF2",
"P c #165AF3",
"I c #165BF5",
"U c #165BF6",
"Y c #165BF7",
"T c #175CF9",
"R c #175DFB",
"E c #175EFD",
"W c #175EFE",
"Q c #175EFF",
"! c #175FFF",
"~ c #1760FF",
"^ c #1860FF",
"/ c #1861FF",
"( c #1862FF",
") c #1863FF",
"_ c #1864FF",
"` c #1964FF",
"' c None",
/* pixels */
"''''''''''''''''''''''''''''''''",
"''''''''''''''''''''''''''''''''",
"''''''''''''''''''''''''''''''''",
"''''WWWW''''''''''''W'''''''''''",
"'''WWWWWW''''''''''WWW''''''''''",
"''''WWWWWW'''''''''WWWW'''''''''",
"'''''WWWWWW''''''''WWWWW''''''''",
"''''''WWWWWW'''''''WWWWWW'''''''",
"''''''WWWWWWQ''''''!!QQWWW''''''",
"''''''WWWWWQ~(''''!^/^!QWE''''''",
"''''''WWWWWQ!~~!!Q!!~!!QWW''''''",
"''''''WWWQQRKSCFIRUHZAJTW!''''''",
"''''''WWQ!!LcpyfnPVhtulHW/''''''",
"''''''WWQ^!Di2:6kDz0>1rmQ)''''''",
"''''''WW!/~Nw%X*iNg<+$8bQ_''''''",
"''''''WW!/~m9@ &yMs-.o3xQ`''''''",
"''''''WW!/~m9@ &yMs=.O4cQ`''''''",
"''''''WW!/~Nw%X*iNg<+#7vQ`''''''",
"''''''WWQ^!Di2;5jDz0;,qbQ'''''''",
"''''''WWQ!!LcpydnPVjrea'''''''''",
"''''''WWWQQRKSCGIRYHZNB'''''''''",
"''''''WWWWWQ!~~!!QQ!!~''''''''''",
"''''''WWWWWQ~()/!Q!~//''''''''''",
"''''''WWWWWWQ'''QWWQ!!''''''''''",
"''''''WWWWWW''''WWWWWW''''''''''",
"''''''WWWWW'''''WWWWW'''''''''''",
"''''''WWWW''''''WWWW''''''''''''",
"''''''WWWW''''''WWW'''''''''''''",
"'''''''''''''''''W''''''''''''''",
"''''''''''''''''''''''''''''''''",
"''''''''''''''''''''''''''''''''",
"''''''''''''''''''''''''''''''''"
};
