/* XPM */
static char *result[] = {
/* columns rows colors chars-per-pixel */
"32 32 201 2 ",
"   c black",
".  c #010101",
"X  c #020202",
"o  c gray1",
"O  c #040404",
"+  c gray2",
"@  c #070707",
"#  c gray4",
"$  c #0C0C0C",
"%  c gray5",
"&  c #0E0E0E",
"*  c gray6",
"=  c #101010",
"-  c #111111",
";  c gray7",
":  c #131313",
">  c gray8",
",  c #151515",
"<  c #161616",
"1  c #181818",
"2  c #191919",
"3  c #1B1B1B",
"4  c gray11",
"5  c #1E1E1E",
"6  c gray12",
"7  c #202020",
"8  c gray13",
"9  c #222222",
"0  c #232323",
"q  c gray14",
"w  c #252525",
"e  c gray15",
"r  c #272727",
"t  c #282828",
"y  c gray16",
"u  c #2A2A2A",
"i  c #2C2C2C",
"p  c #2D2D2D",
"a  c gray18",
"s  c #2F2F2F",
"d  c gray19",
"f  c #313131",
"g  c #323232",
"h  c #343434",
"j  c #353535",
"k  c gray21",
"l  c #373737",
"z  c gray22",
"x  c #393939",
"c  c #3A3A3A",
"v  c gray23",
"b  c gray24",
"n  c #3E3E3E",
"m  c #3F3F3F",
"M  c gray25",
"N  c #444444",
"B  c gray27",
"V  c #464646",
"C  c gray28",
"Z  c #484848",
"A  c gray29",
"S  c gray31",
"D  c #505050",
"F  c gray32",
"G  c gray33",
"H  c #5B5B5B",
"J  c gray37",
"K  c gray38",
"L  c #676767",
"P  c gray42",
"I  c #6C6C6C",
"U  c gray43",
"Y  c gray44",
"T  c #717171",
"R  c #727272",
"E  c gray45",
"W  c #747474",
"Q  c gray46",
"!  c #797979",
"~  c gray48",
"^  c #7B7B7B",
"/  c #7C7C7C",
"(  c #7E7E7E",
")  c gray50",
"_  c #808080",
"`  c #818181",
"'  c gray51",
"]  c #838383",
"[  c #848484",
"{  c gray52",
"}  c gray53",
"|  c #888888",
" . c #898989",
".. c gray54",
"X. c #8B8B8B",
"o. c gray55",
"O. c #8D8D8D",
"+. c #8E8E8E",
"@. c #909090",
"#. c gray57",
"$. c #929292",
"%. c #939393",
"&. c gray58",
"*. c #959595",
"=. c gray59",
"-. c #979797",
";. c #989898",
":. c #9A9A9A",
">. c #9B9B9B",
",. c gray61",
"<. c gray62",
"1. c #9F9F9F",
"2. c #A0A0A0",
"3. c gray63",
"4. c #A2A2A2",
"5. c gray64",
"6. c #A4A4A4",
"7. c #A5A5A5",
"8. c gray65",
"9. c #A7A7A7",
"0. c gray66",
"q. c #A9A9A9",
"w. c #AAAAAA",
"e. c gray67",
"r. c #ACACAC",
"t. c gray68",
"y. c #AFAFAF",
"u. c gray69",
"i. c #B1B1B1",
"p. c #B2B2B2",
"a. c gray70",
"s. c #B4B4B4",
"d. c gray71",
"f. c #B6B6B6",
"g. c #B7B7B7",
"h. c gray72",
"j. c #B9B9B9",
"k. c #BBBBBB",
"l. c gray74",
"z. c gray",
"x. c gray75",
"c. c #C0C0C0",
"v. c #C1C1C1",
"b. c gray76",
"n. c #C3C3C3",
"m. c gray77",
"M. c #C5C5C5",
"N. c gray78",
"B. c #C8C8C8",
"V. c gray79",
"C. c #CACACA",
"Z. c #CBCBCB",
"A. c gray80",
"S. c #CDCDCD",
"D. c #CECECE",
"F. c #D0D0D0",
"G. c gray82",
"H. c gray83",
"J. c #D5D5D5",
"K. c gray84",
"L. c #D7D7D7",
"P. c #D8D8D8",
"I. c gray85",
"U. c gray86",
"Y. c gainsboro",
"T. c #DDDDDD",
"R. c gray87",
"E. c #DFDFDF",
"W. c gray88",
"Q. c #E1E1E1",
"!. c #E2E2E2",
"~. c gray89",
"^. c #E4E4E4",
"/. c gray90",
"(. c #E6E6E6",
"). c #E7E7E7",
"_. c gray91",
"`. c #E9E9E9",
"'. c #EAEAEA",
"]. c gray92",
"[. c #ECECEC",
"{. c gray93",
"}. c #EEEEEE",
"|. c #EFEFEF",
" X c gray94",
".X c #F1F1F1",
"XX c gray95",
"oX c #F3F3F3",
"OX c #F4F4F4",
"+X c gray96",
"@X c #F6F6F6",
"#X c gray97",
"$X c #F8F8F8",
"%X c #F9F9F9",
"&X c gray98",
"*X c #FBFBFB",
"=X c gray99",
"-X c #FDFDFD",
";X c #FEFEFE",
":X c white",
">X c None",
/* pixels */
">X>X>X>X>X>X>X>X>X>X>X>X>X>X>X>X>X>X>X>X>X>X>X>X>X>X>X>X>X>X>X>X",
">X>X>X>X>X>X>X>X>X>X>X>X>X>X>X>X>X>X>X>X>X>X>X>X>X>X>X>X>X>X>X>X",
":X:X:X:X:X:X:X:X:X:X:X:X;X:X:X:X:X:X:X;X:X:X:X:X:X:X:X:X:X>X>X>X",
"].}.+X-X:X:X:X:X:X:X:X:X:X;X#X|.|.#X;X:X:X:X:X:X:X:X:X:X:X>X>X>X",
"} :.M.oX:X:X:X:X:X:X:X:X:X%XF.3.3.F.&X:X:X:X:X:X:X:X:X:X:X:X>X>X",
"> x +._.:X:X*X*X*X=X;X:X:XOX4.C C 5.OX:X-X*X*X*X-X;X:X:X:X:X>X>X",
"  2 ( !.{.m.q.6.t.B.[.:X:XXX%.t y =.{./.k.9.7.i.F.oX:X:X:X>X>X>X",
"  5 { W.B.U j t b / G.:X:XoX*.i s ,.(.d.H s u C @.!.:X:X:X>X>X>X",
"  8 | E.s.M     . G n.:X:XoX=.s g 2.!.>.t     & U P.:X:X:X>X>X>X",
"  8  .E.p.v       D b.:X:XoX=.s g 2.!.;.9     @ P L.:X:X:X>X>X>X",
"  8 | W.c.H 4 & w I A.:X:XoX=.s f 1./.e.V < = d ] R.:X:X:X>X>X>X",
"  8 | '.].s.#. .*.k.{.:X:XoX=.s g 2.OXW.0.O...>.N.#X:X:X:X>X>X>X",
"  6 ^ U.#X].!.Q.~._. X%X:XXX-.s p #._.@X).!.Q.^.'.XX$X=X:X>X>X>X",
"  $ B ' :.>.>.,.>.*.$.9.U.].:.i : D X.>.>.>.,.:.%.%.y.T.=X>X>X>X",
"  O : q u u y y y 0 q S y./.6.h o - e u y y y y 9 t K l.&X>X>X>X",
"A Z N m n n n n n x c K d.'.v.Y B b m n n n n n z n R m.&X>X>X>X",
"v.x.k.g.d.d.d.d.d.a.s.b.~.#X'.D.z.h.f.d.d.d.d.d.a.d.V._.-X>X>X>X",
"K.Y.[.=X:X:X:X:X:X:X:X:X:X-X|.E.E.|.;X:X:X:X:X:X:X:X:X:X:X>X>X>X",
"L _ j.#X:X:X:X:X:X:X:X:X:X$Xn.|  .N.:X:X:X:X:X:X:X:X:X:X:X>X>X>X",
"  y { /.:X+X[.].{.oX*X:X:XoX>.l z >.XX:XXX[.].}.+X=X:X:X:X>X>X>X",
"  1 ) Q.!.e.| _ o.p.^.:X:XXX%.r y -.].L.1.[ ` $.z.}.:X:X:X>X>X>X",
"  7 } W.x.H 3 % q I A.:X:XoX=.a f <.^.w.V , * s ' R.:X:X:X>X>X>X",
"  8  .E.p.v       D b.:X:XoX=.s g 2.!.;.9     @ P L.:X:X:X>X>X>X",
"  8 | E.s.M     . G n.:X:XoX=.s g 2.!.>.t     & U P.:X:X:X>X>X>X",
"  8 | ~.Z.T z i M _ J.:X:XoX=.s g 1.`.h.J g p A &./.:X:X:X>X>X>X",
"  8 } ].+XS.p.t.d.F.OX:X:XoX=.s f 1.@X}.n.u.t.j.I.*X:X:X:X>X>X>X",
"  4 T C._.~.R.R.R.E.W.`.=X.X;.d y { L._.W.R.R.R.E.Q.'.@X;X:X>X>X",
"  & x L ! ^ ^ ^ ^ Q R O.D.'.1.g : M U ~ ~ ^ ^ ~ E W ;.H.=X:X>X>X",
"  X # - > > : : : % & n 8.^.7.j   + ; > : : : : $ : F f.%X>X>X>X",
".                     8 ;.!.0.k                     x r.%X>X>X>X",
">X>X>X>X>X>X>X>X>X>X>X>X>X>X>X>X>X>X>X>X>X>X>X>X>X>X>X>X>X>X>X>X",
">X>X>X>X>X>X>X>X>X>X>X>X>X>X>X>X>X>X>X>X>X>X>X>X>X>X>X>X>X>X>X>X"
};
